<svg width="30" height="30" viewBox="0 0 30 30" fill="none" xmlns="http://www.w3.org/2000/svg">
<g clip-path="url(#clip0_1406_807)">
<path fill-rule="evenodd" clip-rule="evenodd" d="M5 6.25C5 5.25544 5.39509 4.30161 6.09835 3.59835C6.80161 2.89509 7.75544 2.5 8.75 2.5H21.25C22.2446 2.5 23.1984 2.89509 23.9017 3.59835C24.6049 4.30161 25 5.25544 25 6.25V26.285C25 27.81 23.275 28.6975 22.035 27.8113L15 22.7863L7.965 27.8113C6.72375 28.6988 5 27.8112 5 26.2862V6.25ZM8.75 5C8.41848 5 8.10054 5.1317 7.86612 5.36612C7.6317 5.60054 7.5 5.91848 7.5 6.25V25.0712L13.91 20.4925C14.228 20.2653 14.6091 20.1431 15 20.1431C15.3909 20.1431 15.772 20.2653 16.09 20.4925L22.5 25.0712V6.25C22.5 5.91848 22.3683 5.60054 22.1339 5.36612C21.8995 5.1317 21.5815 5 21.25 5H8.75Z" fill="#27AC1F"/>
</g>
<defs>
<clipPath id="clip0_1406_807">
<rect width="30" height="30" fill="white"/>
</clipPath>
</defs>
</svg>
