<svg width="55" height="55" viewBox="0 0 55 55" fill="none" xmlns="http://www.w3.org/2000/svg">
<g filter="url(#filter0_d_1287_794)">
<circle cx="23.5" cy="23.5" r="23.5" fill="white"/>
</g>
<path d="M30 26C30.7956 26 31.5587 26.3161 32.1213 26.8787C32.6839 27.4413 33 28.2044 33 29V29.715C33 33.292 28.79 36 23 36C17.21 36 13 33.433 13 29.715V29C13 28.2044 13.3161 27.4413 13.8787 26.8787C14.4413 26.3161 15.2044 26 16 26H30ZM23 12C23.7879 12 24.5681 12.1552 25.2961 12.4567C26.0241 12.7583 26.6855 13.2002 27.2426 13.7574C27.7998 14.3145 28.2417 14.9759 28.5433 15.7039C28.8448 16.4319 29 17.2121 29 18C29 18.7879 28.8448 19.5681 28.5433 20.2961C28.2417 21.0241 27.7998 21.6855 27.2426 22.2426C26.6855 22.7998 26.0241 23.2417 25.2961 23.5433C24.5681 23.8448 23.7879 24 23 24C21.4087 24 19.8826 23.3679 18.7574 22.2426C17.6321 21.1174 17 19.5913 17 18C17 16.4087 17.6321 14.8826 18.7574 13.7574C19.8826 12.6321 21.4087 12 23 12Z" fill="#616161"/>
<defs>
<filter id="filter0_d_1287_794" x="-8" y="-8" width="63" height="63" filterUnits="userSpaceOnUse" color-interpolation-filters="sRGB">
<feFlood flood-opacity="0" result="BackgroundImageFix"/>
<feColorMatrix in="SourceAlpha" type="matrix" values="0 0 0 0 0 0 0 0 0 0 0 0 0 0 0 0 0 0 127 0" result="hardAlpha"/>
<feOffset/>
<feGaussianBlur stdDeviation="4"/>
<feComposite in2="hardAlpha" operator="out"/>
<feColorMatrix type="matrix" values="0 0 0 0 0 0 0 0 0 0 0 0 0 0 0 0 0 0 0.15 0"/>
<feBlend mode="normal" in2="BackgroundImageFix" result="effect1_dropShadow_1287_794"/>
<feBlend mode="normal" in="SourceGraphic" in2="effect1_dropShadow_1287_794" result="shape"/>
</filter>
</defs>
</svg>
