<svg width="30" height="30" viewBox="0 0 30 30" fill="none" xmlns="http://www.w3.org/2000/svg">
<path d="M15 13.125C15.3708 13.125 15.7334 13.235 16.0417 13.441C16.35 13.647 16.5904 13.9399 16.7323 14.2825C16.8742 14.6251 16.9113 15.0021 16.839 15.3658C16.7666 15.7295 16.588 16.0636 16.3258 16.3258C16.0636 16.588 15.7295 16.7666 15.3658 16.839C15.0021 16.9113 14.6251 16.8742 14.2825 16.7323C13.9399 16.5904 13.647 16.35 13.441 16.0417C13.235 15.7334 13.125 15.3708 13.125 15C13.125 14.5027 13.3225 14.0258 13.6742 13.6742C14.0258 13.3225 14.5027 13.125 15 13.125ZM13.125 22.9687C13.125 23.3396 13.235 23.7021 13.441 24.0104C13.647 24.3188 13.9399 24.5591 14.2825 24.701C14.6251 24.8429 15.0021 24.8801 15.3658 24.8077C15.7295 24.7354 16.0636 24.5568 16.3258 24.2946C16.588 24.0324 16.7666 23.6983 16.839 23.3345C16.9113 22.9708 16.8742 22.5938 16.7323 22.2512C16.5904 21.9086 16.35 21.6158 16.0417 21.4097C15.7334 21.2037 15.3708 21.0937 15 21.0937C14.5027 21.0937 14.0258 21.2913 13.6742 21.6429C13.3225 21.9946 13.125 22.4715 13.125 22.9687ZM13.125 7.03125C13.125 7.40209 13.235 7.7646 13.441 8.07294C13.647 8.38129 13.9399 8.62161 14.2825 8.76352C14.6251 8.90544 15.0021 8.94257 15.3658 8.87022C15.7295 8.79787 16.0636 8.6193 16.3258 8.35707C16.588 8.09485 16.7666 7.76076 16.839 7.39704C16.9113 7.03333 16.8742 6.65633 16.7323 6.31372C16.5904 5.9711 16.35 5.67827 16.0417 5.47224C15.7334 5.26622 15.3708 5.15625 15 5.15625C14.5027 5.15625 14.0258 5.35379 13.6742 5.70542C13.3225 6.05705 13.125 6.53397 13.125 7.03125Z" fill="black"/>
</svg>
